# xmcd
#
# Track frame offsets:
#	150
#	25894
#	43293
#	72380
#	91834
#	107218
#	129881
#	153376
#	173694
#	195873
#	210617
#	225362
#
# Disc length: 3282 seconds
# Revision: 1
# Processed by: cddbd v1.5.2PL0 Copyright (c) Steve Scherf et al.
# Submitted via: dBpowerAMP V12.0
#
DISCID=930cd00c
DTITLE=Annika Chambers and the Houston All-Stars - Making My Mark
DYEAR=2014
DGENRE=Blues Soul
TTITLE0=Move
TTITLE1=Barnyard Blues
TTITLE2=Jealous Kind
TTITLE3=Lick'Er
TTITLE4=Trust Me
TTITLE5=Down South
TTITLE6=That Feel Good
TTITLE7=Put It Where You Want It
TTITLE8=Guitar Boy
TTITLE9=Love's Sweet Sensation
TTITLE10=It Hurts Me to My Heart
TTITLE11=Lets Get Down to Business
EXTD=
EXTT0=
EXTT1=
EXTT2=
EXTT3=
EXTT4=
EXTT5=
EXTT6=
EXTT7=
EXTT8=
EXTT9=
EXTT10=
EXTT11=
PLAYORDER=
